<svg width="18" height="27" viewBox="0 0 18 27" fill="none" xmlns="http://www.w3.org/2000/svg">
<path d="M0 4.06483C0 2.65374 1.14392 1.50983 2.55501 1.50983V24.5049C1.14392 24.5049 0 23.361 0 21.9499V4.06483Z" fill="white"/>
<path d="M3.49333 3.0011C3.49333 1.10316 5.23431 -0.317867 7.09392 0.0616455L14.6613 1.60559C16.0581 1.89064 17.0616 3.11953 17.0617 4.54504V21.5206C17.0617 22.9463 16.0581 24.175 14.6613 24.4601L7.09392 26.005C5.23432 26.3845 3.49336 24.9635 3.49333 23.0656V3.0011ZM5.85954 10.4933C5.48971 10.4933 5.18985 10.7934 5.18962 11.1632V13.8429C5.18975 14.2128 5.48965 14.5128 5.85954 14.5128C6.22944 14.5128 6.52933 14.2128 6.52946 13.8429V11.1632C6.52924 10.7934 6.22938 10.4933 5.85954 10.4933Z" fill="#FFFEFE"/>
</svg>
