<svg width="30" height="34" viewBox="0 0 30 34" fill="none" xmlns="http://www.w3.org/2000/svg">
<circle cx="14.0726" cy="6.62941" r="6.62941" fill="black"/>
<g filter="url(#filter0_d_17_237)">
<path d="M16.6904 14.0504C21.3978 14.0504 25.2138 17.8665 25.2139 22.5739C25.2139 24.4568 23.6877 25.983 21.8047 25.983H7.67188C5.64419 25.983 4.0002 24.3398 4 22.3121C4 17.7496 7.69915 14.0504 12.2617 14.0504H16.6904Z" fill="black"/>
</g>
<path d="M23.7923 14.9992C27.0283 14.9994 29.6514 17.6226 29.6517 20.8586C29.6517 22.153 28.6024 23.2032 27.3079 23.2033H25.6458C25.7126 22.937 25.7483 22.6583 25.7484 22.3712C25.7484 19.2232 24.0408 16.4753 21.5023 14.9992H23.7923Z" fill="black"/>
<path d="M22.3596 4.97214C24.8766 4.97223 26.9171 7.01273 26.9172 9.52975C26.9172 12.0469 24.8767 14.0873 22.3596 14.0874C20.8974 14.0874 19.5969 13.3982 18.7629 12.3276C20.2709 11.1124 21.2366 9.25095 21.2366 7.16354C21.2365 6.47905 21.1324 5.81889 20.9397 5.19772C21.3865 5.05139 21.8639 4.97214 22.3596 4.97214Z" fill="black"/>
<defs>
<filter id="filter0_d_17_237" x="0" y="14.0504" width="29.2139" height="19.9326" filterUnits="userSpaceOnUse" color-interpolation-filters="sRGB">
<feFlood flood-opacity="0" result="BackgroundImageFix"/>
<feColorMatrix in="SourceAlpha" type="matrix" values="0 0 0 0 0 0 0 0 0 0 0 0 0 0 0 0 0 0 127 0" result="hardAlpha"/>
<feOffset dy="4"/>
<feGaussianBlur stdDeviation="2"/>
<feComposite in2="hardAlpha" operator="out"/>
<feColorMatrix type="matrix" values="0 0 0 0 0 0 0 0 0 0 0 0 0 0 0 0 0 0 0.25 0"/>
<feBlend mode="normal" in2="BackgroundImageFix" result="effect1_dropShadow_17_237"/>
<feBlend mode="normal" in="SourceGraphic" in2="effect1_dropShadow_17_237" result="shape"/>
</filter>
</defs>
</svg>
