<svg width="18" height="27" viewBox="0 0 18 27" fill="none" xmlns="http://www.w3.org/2000/svg">
<path d="M0 4.08416C0 2.66743 1.14848 1.51895 2.56521 1.51895V24.6058C1.14848 24.6058 0 23.4573 0 22.0406V4.08416Z" fill="white"/>
<path d="M3.5072 3.0011C3.50736 1.10328 5.24826 -0.31785 7.10779 0.0616455L14.7299 1.61731C16.1266 1.90241 17.1302 3.13123 17.1302 4.55676V21.6202C17.1301 23.0457 16.1265 24.2746 14.7299 24.5597L7.10779 26.1154C5.24832 26.4948 3.50746 25.0736 3.5072 23.1759V3.0011ZM5.88318 10.5392C5.51175 10.5392 5.21033 10.8406 5.21033 11.212V13.9015C5.21051 14.2728 5.51186 14.5743 5.88318 14.5743C6.25441 14.5742 6.55487 14.2727 6.55505 13.9015V11.212C6.55505 10.8407 6.25452 10.5393 5.88318 10.5392Z" fill="white"/>
</svg>
